<?xml version="1.0" encoding="UTF-8" standalone="no"?>
<svg
   version="1.2"
   viewBox="0 0 844 844"
   width="844"
   height="844"
   id="svg1"
   sodipodi:docname="logo_2.svg"
   inkscape:version="1.3.2 (091e20e, 2023-11-25)"
   xmlns:inkscape="http://www.inkscape.org/namespaces/inkscape"
   xmlns:sodipodi="http://sodipodi.sourceforge.net/DTD/sodipodi-0.dtd"
   xmlns="http://www.w3.org/2000/svg"
   xmlns:svg="http://www.w3.org/2000/svg">
  <defs
     id="defs1" />
  <sodipodi:namedview
     id="namedview1"
     pagecolor="#ffffff"
     bordercolor="#000000"
     borderopacity="0.25"
     inkscape:showpageshadow="2"
     inkscape:pageopacity="0.0"
     inkscape:pagecheckerboard="0"
     inkscape:deskcolor="#d1d1d1"
     inkscape:zoom="0.65130024"
     inkscape:cx="423"
     inkscape:cy="423"
     inkscape:window-width="1512"
     inkscape:window-height="764"
     inkscape:window-x="0"
     inkscape:window-y="34"
     inkscape:window-maximized="1"
     inkscape:current-layer="svg1" />
  <style
     id="style1">
		.s0 { fill: #214255 } 
		.s1 { fill: #50dcdd } 
	</style>
  <g
     id="Background"
     transform="translate(-1,-2)">
    <rect
       style="fill:#214255;fill-opacity:1;stroke-width:0"
       id="rect1"
       width="844"
       height="844"
       x="1"
       y="2"
       rx="120"
       ry="120"
       inkscape:label="rect1" />
    <path
       id="Path 2"
       class="s1"
       d="m 345.04444,188.94779 c -5.57582,0.0563 -14.4408,0.77715 -19.71249,1.59944 -5.27167,0.82229 -14.13666,2.61472 -19.71248,3.97769 -5.57581,1.37425 -14.4408,4.13311 -19.71248,6.13816 -5.27168,2.00503 -14.38449,6.06018 -20.2757,9.01141 -5.8912,2.93999 -15.77,8.79635 -21.96533,12.99792 -6.19535,4.21284 -15.79217,11.87353 -21.32293,17.04382 -5.53075,5.15904 -13.85471,13.94526 -18.50686,19.52108 -4.64086,5.57581 -11.96257,15.46586 -16.24299,21.96534 -4.29168,6.49947 -10.53272,17.40331 -13.86693,24.21819 -3.33423,6.81488 -8.34728,19.36331 -11.15208,27.87908 -2.79354,8.51578 -6.38641,22.70879 -7.99719,31.53998 -2.23033,12.31184 -3.05359,21.30077 -3.52669,38.58014 -0.51815,19.14925 -0.23496,25.4798 1.90524,42.24104 1.37425,10.83622 3.69478,24.27451 5.15913,29.85032 1.45309,5.57582 4.48124,15.71368 6.74536,22.52856 2.25286,6.81487 7.41375,21.25569 11.46888,32.10318 7.28799,19.47591 7.37741,19.89273 8.28981,34.91926 0.60827,10.16037 1.72396,17.82008 3.35729,23.09176 1.34045,4.33675 3.71685,10.41946 5.27132,13.51714 1.577,3.14273 6.75928,9.49578 11.70428,14.36194 6.33052,6.2404 11.35344,9.98059 17.59384,13.12333 4.79858,2.41055 11.77117,5.19336 15.48838,6.17335 3.96502,1.04758 11.42198,1.79031 18.02284,1.81284 6.70223,0.0113 14.00149,-0.69927 18.02284,-1.74685 3.71721,-0.96872 10.81371,-3.87323 15.76999,-6.45275 6.33051,-3.2779 11.5575,-7.21099 17.53882,-13.15851 6.24041,-6.21788 9.63149,-10.74535 12.65032,-16.92942 2.27538,-4.65215 4.89934,-11.48957 5.84554,-15.20677 0.94619,-3.75101 1.7009,-11.52337 1.68963,-17.45964 -0.0113,-5.8912 -0.81137,-13.99022 -1.76883,-18.02284 -0.95747,-4.0326 -3.72927,-11.1291 -6.16236,-15.76999 -2.43308,-4.65214 -7.21979,-11.36565 -10.63285,-14.92516 -3.41308,-3.55951 -9.12381,-8.38036 -12.68331,-10.71206 -3.55951,-2.3317 -10.77992,-5.73484 -16.0516,-7.54839 -8.97762,-3.0864 -10.5659,-3.2779 -25.34462,-3.09768 -15.6686,0.20277 -15.80378,0.18217 -20.83891,-3.08446 -2.79354,-1.80229 -6.92744,-5.72279 -9.20282,-8.70782 -2.28665,-2.98502 -6.01415,-9.23705 -8.30081,-13.87794 -2.28664,-4.65215 -5.2275,-13.01024 -6.53415,-18.58606 -2.03884,-8.696 -2.37774,-13.73117 -2.40026,-35.48246 -0.0338,-22.56233 0.25942,-26.64003 2.61366,-37.17212 1.45309,-6.49947 4.65302,-17.1555 7.09737,-23.65498 2.45561,-6.49947 6.73516,-16.13044 9.51744,-21.40211 2.79354,-5.27169 6.04857,-10.8475 7.24258,-12.39071 l 2.17585,-2.81607 c 0.0451,20.07292 0.8207,30.97677 1.75564,37.17211 0.93494,6.19534 2.97517,16.07413 4.5409,21.96534 1.55448,5.8912 5.88991,17.03159 9.62965,24.7814 3.73974,7.73855 9.51875,18.13549 12.84171,23.09177 3.3117,4.95628 9.74324,13.15659 14.28275,18.21425 4.5395,5.05765 11.79405,12.33394 16.1308,16.16379 4.33674,3.81859 12.18794,9.78839 17.45962,13.24653 5.27168,3.46939 15.15046,8.97886 21.96534,12.2455 6.81488,3.26664 18.47342,7.68276 25.90784,9.83424 7.43441,2.14021 19.35203,4.75149 26.47105,5.81034 10.07024,1.48688 17.45963,1.78187 33.22961,1.32004 12.75114,-0.38299 25.50233,-1.48733 34.35604,-2.98547 7.73854,-1.30666 21.42466,-3.90968 30.41354,-5.77955 8.98888,-1.88113 26.21198,-5.8804 38.29854,-8.89922 l 21.96534,-5.47374 c 55.0034,54.84571 71.47182,70.77354 72.09136,70.77354 0.61954,0 21.14307,-20.3096 45.62032,-45.14731 l 44.49388,-45.1583 c -68.97108,-68.81339 -89.25705,-88.79638 -89.59498,-88.79638 -0.33793,0 -19.59987,18.66502 -42.80426,41.48642 l -42.19703,41.48642 c -22.69749,8.89876 -35.11076,13.2467 -42.24103,15.39817 -7.13028,2.15148 -17.26814,4.74183 -22.52856,5.74434 -5.26041,1.01379 -15.90517,2.59035 -23.65497,3.49149 -7.73855,0.91241 -17.87641,1.65664 -22.52855,1.65664 -4.64088,0 -12.75116,-0.52836 -18.02285,-1.17043 -5.27168,-0.65333 -13.87758,-2.19741 -19.14927,-3.43648 -5.27167,-1.23907 -14.13666,-4.11164 -19.71248,-6.37576 -5.57581,-2.26412 -14.19298,-6.3534 -19.14927,-9.09062 -4.95627,-2.72596 -12.31185,-7.60243 -16.33319,-10.83526 -4.02135,-3.23285 -10.80175,-9.38385 -15.04837,-13.67554 -4.25789,-4.28042 -10.2057,-11.08396 -13.22453,-15.11658 -3.00756,-4.02134 -7.98699,-12.39071 -11.05087,-18.58605 -3.06388,-6.19534 -6.6014,-15.0716 -7.86298,-19.71248 -1.2616,-4.65215 -2.88278,-13.01024 -3.6037,-18.58606 -0.73217,-5.64339 -1.02488,-14.89138 -0.66441,-20.83891 0.36045,-5.91373 1.82499,-14.73367 3.27807,-19.71248 1.44183,-4.95628 4.61783,-12.55967 7.06217,-16.89641 2.44435,-4.33675 7.50282,-11.11687 11.23128,-15.05937 3.73974,-3.9425 9.06695,-8.83163 11.8605,-10.87047 2.79353,-2.03883 8.61717,-5.46291 12.95392,-7.61438 4.33674,-2.16273 11.18542,-4.74209 15.20677,-5.73334 4.02134,-0.99126 11.12909,-2.14215 15.76998,-2.54766 4.95628,-0.42805 12.40197,-0.15568 18.02284,0.66661 5.27168,0.76598 13.87759,2.97334 19.14927,4.89953 5.27168,1.92619 13.12288,5.84449 17.45963,8.7056 4.33675,2.87239 10.92608,8.46062 14.65456,12.43691 3.7172,3.97627 8.61708,10.27293 10.89247,13.99014 2.26412,3.71721 5.49819,10.8137 7.17656,15.76999 2.32045,6.8712 3.17619,11.9514 3.5817,21.40212 0.40551,9.19164 0.0567,14.42955 -1.32884,20.2757 -1.03631,4.33675 -3.49342,10.87046 -5.47593,14.53136 -1.97125,3.64961 -6.38623,9.24692 -9.78804,12.4347 -3.72848,3.48065 -8.88751,6.88256 -12.95392,8.53841 -5.50822,2.25285 -8.72982,2.7608 -17.45962,2.77207 -9.63095,0.0225 -11.37693,-0.31646 -17.45963,-3.33529 -3.71721,-1.84734 -8.50392,-5.13651 -10.63286,-7.32178 -2.12895,-2.18527 -5.17031,-6.75803 -6.75856,-10.15984 -2.39929,-5.15904 -2.87407,-7.7949 -2.84028,-15.76999 0.0451,-7.43441 0.60827,-10.76865 2.53446,-14.92516 1.37424,-2.93999 4.7105,-7.76109 7.42519,-10.70107 2.72595,-2.93997 7.41189,-6.45434 10.41945,-7.79479 3.01883,-1.35171 6.37461,-2.73721 7.45599,-3.09768 1.63331,-0.54068 1.73469,-0.96899 0.5632,-2.52346 -0.77723,-1.02505 -4.44938,-3.3117 -8.16659,-5.06892 -5.41812,-2.56825 -8.31305,-3.19888 -14.64356,-3.19888 -6.35304,0 -9.20291,0.6301 -14.64356,3.22089 -3.71721,1.77974 -8.93345,5.4519 -11.60308,8.1666 -2.65837,2.72594 -6.03589,7.48017 -7.48899,10.57785 -1.46435,3.09767 -3.26699,8.6735 -4.02169,12.3907 -0.79977,4.01008 -1.05973,9.73234 -0.62042,14.08035 0.40552,4.02134 2.22989,11.62473 4.05471,16.89641 1.8248,5.27168 5.22768,12.31256 7.55937,15.64678 2.3317,3.34549 7.65945,9.29304 11.83849,13.23552 5.0802,4.78732 10.68981,8.66127 16.89641,11.6801 5.11398,2.47813 13.34818,5.51922 18.30445,6.76956 5.19284,1.29539 12.70611,2.25312 17.74124,2.24185 4.79858,0 13.16794,-1.04625 18.58605,-2.30785 5.41812,-1.27286 13.91139,-4.27102 18.86767,-6.68156 4.95628,-2.41056 12.30058,-7.09624 16.3332,-10.43047 4.0326,-3.33422 9.81162,-9.32716 12.84171,-13.31472 3.04136,-3.99882 7.96271,-12.33351 10.93648,-18.52885 3.35674,-6.98384 6.54611,-15.97276 8.3822,-23.65498 1.63331,-6.81488 3.36792,-17.20056 3.85229,-23.09176 0.49562,-5.89121 0.45022,-15.77 -0.0792,-21.96534 -0.54069,-6.2742 -2.51325,-16.75 -4.45071,-23.65498 -1.91493,-6.81488 -5.50806,-16.69366 -7.98619,-21.96534 -2.47814,-5.27168 -6.67867,-12.61599 -9.33703,-16.3332 -2.65838,-3.71721 -7.56925,-9.75531 -10.90348,-13.40493 -3.33421,-3.66089 -10.12728,-9.79922 -15.08356,-13.64034 -4.95628,-3.85237 -13.06656,-9.34917 -18.02285,-12.21029 -4.95627,-2.87239 -13.31437,-7.02997 -18.58604,-9.24903 -5.27169,-2.23032 -15.65737,-5.50655 -23.09178,-7.29757 -7.4344,-1.79103 -17.82008,-3.78665 -23.09176,-4.42872 -5.27168,-0.64206 -14.13666,-1.11481 -19.71248,-1.04722 z m 272.59547,222.80825 48.09758,49.11181 -5.44073,5.63214 c -3.00757,3.09767 -13.82033,14.12543 -42.65685,43.36746 l -48.9996,-48.9996 24.4998,-24.55701 z"
       style="stroke-width:1.12643" />
  </g>
</svg>
